<?xml version="1.0" encoding="UTF-8"?>
<svg xmlns="http://www.w3.org/2000/svg" xmlns:xlink="http://www.w3.org/1999/xlink" viewBox="0 0 611.3 611.3">
  <defs>
    <style>
      .cls-1, .cls-2, .cls-3, .cls-4, .cls-5, .cls-6, .cls-7, .cls-8, .cls-9, .cls-10, .cls-11, .cls-12, .cls-13 {
        stroke: #231f20;
        stroke-miterlimit: 10;
      }

      .cls-1, .cls-5 {
        fill: #fff;
      }

      .cls-1, .cls-9 {
        stroke-width: 8px;
      }

      .cls-2, .cls-3, .cls-4, .cls-5, .cls-10, .cls-11, .cls-12 {
        stroke-width: 5px;
      }

      .cls-2, .cls-6, .cls-7, .cls-8, .cls-9 {
        fill: none;
      }

      .cls-3 {
        fill: url(#linear-gradient);
      }

      .cls-14 {
        font-size: 80px;
      }

      .cls-14, .cls-15, .cls-16 {
        font-family: TwCenMT-CondensedExtraBold, 'Tw Cen MT Condensed Extra Bold';
        font-weight: 700;
      }

      .cls-14, .cls-15, .cls-16, .cls-17 {
        fill: #231f20;
      }

      .cls-4 {
        fill: url(#linear-gradient-4);
      }

      .cls-6 {
        stroke-width: 32px;
      }

      .cls-7 {
        stroke-width: 3px;
      }

      .cls-8 {
        stroke-width: 15px;
      }

      .cls-15 {
        font-size: 28px;
      }

      .cls-10 {
        fill: url(#linear-gradient-3);
      }

      .cls-11 {
        fill: url(#linear-gradient-5);
      }

      .cls-16 {
        font-size: 100px;
      }

      .cls-12 {
        fill: url(#linear-gradient-2);
      }

      .cls-13 {
        fill: #97cff0;
        stroke-width: 6px;
      }
    </style>
    <linearGradient id="linear-gradient" x1="122.6" y1="428.23" x2="278.9" y2="227.28" gradientUnits="userSpaceOnUse">
      <stop offset=".21" stop-color="#fbb117"/>
      <stop offset=".34" stop-color="#f8981c"/>
      <stop offset=".6" stop-color="#f26b25"/>
      <stop offset=".74" stop-color="#f15a29"/>
    </linearGradient>
    <linearGradient id="linear-gradient-2" x1="300.42" y1="158.68" x2="396.73" y2="268.78" gradientUnits="userSpaceOnUse">
      <stop offset=".61" stop-color="#fff"/>
      <stop offset=".69" stop-color="#e7e7e7"/>
      <stop offset=".77" stop-color="#d6d6d6"/>
    </linearGradient>
    <linearGradient id="linear-gradient-3" x1="384.83" y1="66.29" x2="496.73" y2="201.58" gradientUnits="userSpaceOnUse">
      <stop offset=".32" stop-color="#fff"/>
      <stop offset=".46" stop-color="#e7e7e7"/>
      <stop offset=".59" stop-color="#d6d6d6"/>
    </linearGradient>
    <linearGradient id="linear-gradient-4" x1="298.23" y1="157.99" x2="396.52" y2="270.28" gradientUnits="userSpaceOnUse">
      <stop offset=".5" stop-color="#b06e39"/>
      <stop offset=".62" stop-color="#914e26"/>
      <stop offset=".7" stop-color="#813d1c"/>
    </linearGradient>
    <linearGradient id="linear-gradient-5" x1="253.29" y1="262.22" x2="270.31" y2="281.6" gradientUnits="userSpaceOnUse">
      <stop offset=".32" stop-color="#97cff0"/>
      <stop offset=".57" stop-color="#83b4d1"/>
      <stop offset=".74" stop-color="#78a5c0"/>
    </linearGradient>
  </defs>
  <g id="Title">
    <text id="Subheading" class="cls-15" transform="translate(163.11 531.16) rotate(5.46)"><tspan x="0" y="0">c</tspan></text>
    <text class="cls-15" transform="translate(172.79 532.11) rotate(3.95)"><tspan x="0" y="0">o</tspan></text>
    <text class="cls-15" transform="translate(185.97 532.98) rotate(2.54)"><tspan x="0" y="0">f</tspan></text>
    <text class="cls-15" transform="translate(195.08 533.37) rotate(1.35)"><tspan x="0" y="0">f</tspan></text>
    <text class="cls-15" transform="translate(203.99 533.59) rotate(-.06)"><tspan x="0" y="0">e</tspan></text>
    <text class="cls-15" transform="translate(216.53 533.58) rotate(-1.8)"><tspan x="0" y="0">e</tspan></text>
    <text class="cls-15" transform="translate(229.19 533.18) rotate(-4.04)"><tspan x="0" y="0">•</tspan></text>
    <text class="cls-15" transform="translate(243.42 532.13) rotate(-5.32)"><tspan x="0" y="0">s</tspan></text>
    <text class="cls-15" transform="translate(254.32 531.13) rotate(-5.99)"><tspan x="0" y="0">m</tspan></text>
    <text class="cls-15" transform="translate(274.02 529.05) rotate(-6.26)"><tspan x="0" y="0">o</tspan></text>
    <text class="cls-15" transform="translate(286.82 527.64) rotate(-6.44)"><tspan x="0" y="0">o</tspan></text>
    <text class="cls-15" transform="translate(299.64 526.19) rotate(-6.64)"><tspan x="0" y="0">t</tspan></text>
    <text class="cls-15" transform="translate(307.88 525.24) rotate(-6.89)"><tspan x="0" y="0">h</tspan></text>
    <text class="cls-15" transform="translate(321.25 523.62) rotate(-7.13)"><tspan x="0" y="0">i</tspan></text>
    <text class="cls-15" transform="translate(328.68 522.68) rotate(-7.12)"><tspan x="0" y="0">e</tspan></text>
    <text class="cls-15" transform="translate(340.69 521.16) rotate(-6.09)"><tspan x="0" y="0">s</tspan></text>
    <text class="cls-15" transform="translate(351.49 520) rotate(-4.61)"><tspan x="0" y="0">•</tspan></text>
    <text class="cls-15" transform="translate(365.62 518.88) rotate(-3.37)"><tspan x="0" y="0">s</tspan></text>
    <text class="cls-15" transform="translate(376.49 518.23) rotate(-2.18)"><tspan x="0" y="0">h</tspan></text>
    <text class="cls-15" transform="translate(389.88 517.72) rotate(-.89)"><tspan x="0" y="0">a</tspan></text>
    <text class="cls-15" transform="translate(403.29 517.51) rotate(.38)"><tspan x="0" y="0">k</tspan></text>
    <text class="cls-15" transform="translate(416.14 517.6) rotate(1.5)"><tspan x="0" y="0">e</tspan></text>
    <text class="cls-15" transform="translate(428.25 517.92) rotate(2.55)"><tspan x="0" y="0">s</tspan></text>
    <text class="cls-16" transform="translate(167.04 508.3) rotate(-.9)"><tspan x="0" y="0">B</tspan></text>
    <text class="cls-16" transform="translate(238.2 506.41) rotate(-4.73)"><tspan x="0" y="0">R</tspan></text>
    <text class="cls-16" transform="translate(306.94 499.43) rotate(-6.04)"><tspan x="0" y="0">E</tspan></text>
    <text class="cls-16" transform="translate(364.44 492.45) rotate(-1.86)"><tspan x="0" y="0">W</tspan></text>
    <text class="cls-14" transform="translate(169.66 437.44) rotate(.08)"><tspan x="0" y="0">B</tspan></text>
    <text class="cls-14" transform="translate(215.68 437.35) rotate(-2.76)"><tspan x="0" y="0">O</tspan></text>
    <text class="cls-14" transform="translate(266.51 434.99) rotate(-7.11)"><tspan x="0" y="0">M</tspan></text>
    <text class="cls-14" transform="translate(328.75 426.8) rotate(-5.52)"><tspan x="0" y="0">B</tspan></text>
    <text class="cls-14" transform="translate(372.26 422.77) rotate(-2.81)"><tspan x="0" y="0">E</tspan></text>
    <text class="cls-14" transform="translate(408.54 420.98) rotate(-.22)"><tspan x="0" y="0">R</tspan></text>
  </g>
  <g id="Cup">
    <path id="Fire" class="cls-3" d="m310.02,322.67c-2.67,5.44-6.33,12.89-14.41,17.8-11.55,7.01-28.86,6.84-34.75,6.78-7.05-.07-10.71-.88-15.25,1.69-4.68,2.66-4.9,5.84-11.02,13.56-4.7,5.93-8.66,10.92-14.41,13.56-6.85,3.15-9.78-.03-22.03,0-4.58,0-20.05.21-33.9,8.47-10.99,6.56-15.13,14.72-16.95,13.56-2.03-1.3.98-12.89,8.47-22.03,6.39-7.79,9.92-6.36,19.49-16.1,5.37-5.47,10.28-10.59,11.86-18.64.48-2.44,1.29-7.17-1.08-11.92-1.98-3.99-7.65-4.4-11.27-.02q-2.45,2.95-6.75,10.25c-1.85,3.13-1.75,2.63-11.4,12.71-8.77,9.15-13.48,13.4-16.1,16.1-11.41,11.74-14.62,26.29-17.8,40.68-6.57,29.8-.64,50.07-4.24,50.85-3.26.71-10.23-15.46-14.41-30.51-2.11-7.6-8.25-31.99-4.24-65.25,3.99-33.12,15.83-56.63,19.49-63.56,8.14-15.4,20.36-38.76,47.46-56.78,4.89-3.25,26.02-16.81,57.42-20.66,23.97-2.94,54.07-6.64,75.32,13.6,24.92,23.75,20.97,64.53,10.48,85.87Z"/>
    <path id="Body" class="cls-12" d="m376.74,75.71c-14.08,14.5-34.8,34.26-48.92,48.72-20.91,21.41-41.85,42.77-62.85,64.09-9.89,9.89-19.71,18.62-24.6,24.08-8.13,9.06-10.13,15.82-9.82,24.53.2,5.6,1.23,13.56,11.19,24.69,21.36,23.87,19.31,20,34.64,34.26,6.31,5.88,25.7,21.83,34.02,22.18,11.78.49,29.83-7.05,29.83-7.05l55.75-36.36c23.82-17.86,47.64-35.73,71.46-53.59"/>
    <g id="Lid">
      <path class="cls-10" d="m395.44,53.16c2.93,2.58,7.52,8.77,13.19,8.31,5.59-.46,8.17-4.39,11.6-6.07,12.62-6.17,38.76,16.78,44.17,22.3,7.81,7.96,34.42,36.02,39.81,71.76,1.83,12.12-.23,20.4-3.81,29.9-2.84,7.54-2.78,9.36-2.9,17.41-.12,7.89,1.58,6.43,0,7.85-5.78,5.19-18.13,18.07-19.98,17.67-20.33-4.36-45.54-15.22-65.99-37.93-16.89-18.77-25.06-45.36-28.69-57.1-6.98-22.53-6.27-43.43-6.4-57.09l18.99-17.01Z"/>
      <path class="cls-2" d="m395.32,52.5c.38,4.7,1.03,11.65,2.11,20.04,2.6,20.13,4.68,36.19,11.08,53.8,4.49,12.35,9.09,25.01,20.57,37.98,13.71,15.48,29.77,22.97,39.56,27.43,9.7,4.41,21.99,10.34,28.87,12.86"/>
      <path class="cls-5" d="m421.03,55.14c-15.03,47.94,50.9,132.4,81.89,116.31"/>
      <path class="cls-5" d="m421.03,55.14c40.37-1.23,95.21,79.12,81.89,116.31"/>
      <path id="Drinkhole" class="cls-17" d="m475.56,120.48c-2.88,1.66-6.57.68-8.23-2.21l-7.19-12.45c-1.66-2.88-.68-6.57,2.21-8.23h0c2.88-1.66,6.57-.68,8.23,2.21l7.19,12.45c1.66,2.88.68,6.57-2.21,8.23Z"/>
    </g>
    <g id="Grip">
      <path class="cls-4" d="m382.39,283.69c-51.08-12.44-96.46-58.21-102.82-110.06l48.25-49.2c10.66,62.92,63.73,106.9,100.58,126.09l-46.01,33.17Z"/>
      <circle class="cls-5" cx="334.84" cy="215.52" r="33.31"/>
      <g id="X">
        <line class="cls-1" x1="330.03" y1="190.75" x2="339.61" y2="198.37"/>
        <line class="cls-1" x1="352.91" y1="211.19" x2="362.49" y2="218.81"/>
        <line class="cls-1" x1="328.67" y1="232.67" x2="338.25" y2="240.29"/>
        <line class="cls-1" x1="307.19" y1="213.56" x2="316.77" y2="221.19"/>
        <polyline class="cls-9" points="333.76 193.72 333.76 216.15 359.15 216.15"/>
        <polyline class="cls-9" points="333.76 236.72 333.76 216.15 310.44 216.15"/>
      </g>
    </g>
  </g>
  <g id="Fin">
    <path class="cls-13" d="m177.6,200.19c10.46-7.8,14.47-1.58,41.14-8.97,13.96-3.87,21.14-7.86,33.76-6.33,5.09.62,12.16,1.58,15.82,6.86,1.46,2.11,3.58,6.62-1.58,23.74-5.76,19.1-8.64,28.65-17.41,34.29-6.67,4.29-14.64,3.91-30.59,3.16-8.9-.42-24.97-2.06-42.2-10.55-10.37-5.11-12.07-8.23-12.66-9.49-4.51-9.71,3.14-24.82,13.71-32.7Z"/>
    <line class="cls-7" x1="256.98" y1="201.9" x2="211.63" y2="207.44"/>
    <path class="cls-7" d="m211.63,207.44c-23.09,2.51-29.03,11.21-29.69,23.21"/>
    <path class="cls-13" d="m298.92,237.9c.34-.37,6.13-6.75,3.96-13.85-2.33-7.62-11.74-9.21-13.45-9.49-3.94-.66-7.6-.06-17.8,4.35-13.57,5.87-20.36,8.8-26.51,14.24-7.24,6.41-6.73,9.41-15.03,20.57-5.36,7.21-12.01,13.51-25.32,26.11-19.79,18.74-29.68,28.11-31.65,29.27-1.35.8-9.69,5.7-14.24,15.03-2.36,4.83-1.49,6.32-1.19,6.73,2.47,3.37,13.9-1.39,16.22-2.37l125.01-90.59Z"/>
    <path class="cls-11" d="m226.96,281.44c10.85-11.65,20.59-16.18,45.05-39.97,1.95-1.89,5.96-5.9,11.47-5.93,6.07-.03,12.36,4.76,14.24,10.68,1.79,5.63.17,11.78-4.35,17.01-13.78,15.95-27.91,25.02-40.35,37.58-5.54,5.6-19.79,6.81-24.53,1.58-5.55-6.12-3.56-18.77-1.53-20.95Z"/>
    <path class="cls-9" d="m272.01,241.47c.9,1.53,2.89,12.14,5.54,14.24,3.06,2.43,14.34,7.56,16.15,8.03"/>
    <polyline class="cls-8" points="196.29 249.65 211.63 207.44 204.28 193.96"/>
    <line class="cls-6" x1="201.63" y1="282.66" x2="216.29" y2="297.78"/>
  </g>
</svg>