<?xml version="1.0" encoding="UTF-8"?>
<svg xmlns="http://www.w3.org/2000/svg" viewBox="0 0 611.3 611.3">
  <defs>
    <style>
      .cls-1 {
        font-size: 75px;
      }

      .cls-1, .cls-2, .cls-3 {
        font-family: TwCenMT-CondensedExtraBold, 'Tw Cen MT Condensed Extra Bold';
        font-weight: 700;
      }

      .cls-1, .cls-2, .cls-3, .cls-4 {
        fill: #231f20;
      }

      .cls-5, .cls-6, .cls-7, .cls-8, .cls-9, .cls-10, .cls-11, .cls-12, .cls-13, .cls-14 {
        stroke: #231f20;
        stroke-miterlimit: 10;
      }

      .cls-5, .cls-7, .cls-8, .cls-9, .cls-12, .cls-13 {
        stroke-width: 5px;
      }

      .cls-5, .cls-14 {
        fill: #97cff0;
      }

      .cls-6, .cls-9 {
        fill: #fff;
      }

      .cls-6, .cls-11 {
        stroke-width: 8px;
      }

      .cls-7, .cls-10, .cls-11 {
        fill: none;
      }

      .cls-15 {
        fill: #f15a29;
      }

      .cls-8, .cls-16 {
        fill: #d6d6d6;
      }

      .cls-17 {
        fill: #78a5c0;
      }

      .cls-10 {
        stroke-width: 3px;
      }

      .cls-18 {
        fill: #f47b4a;
      }

      .cls-2 {
        font-size: 28px;
      }

      .cls-19 {
        fill: #fbb117;
      }

      .cls-12 {
        fill: #b06e39;
      }

      .cls-13 {
        fill: #813d1c;
      }

      .cls-3 {
        font-size: 100px;
      }

      .cls-14 {
        stroke-width: 6px;
      }
    </style>
  </defs>
  <g id="Title">
    <text class="cls-1" transform="translate(175.26 435.46) rotate(1.35)"><tspan x="0" y="0">B</tspan></text>
    <text class="cls-1" transform="translate(221.25 436.32) rotate(-2.63)"><tspan x="0" y="0">O</tspan></text>
    <text class="cls-1" transform="translate(271.33 433.8) rotate(-7.27)"><tspan x="0" y="0">M</tspan></text>
    <text class="cls-1" transform="translate(331.76 425.82) rotate(-5.4)"><tspan x="0" y="0">B</tspan></text>
    <text class="cls-1" transform="translate(374.81 421.96) rotate(-2.71)"><tspan x="0" y="0">E</tspan></text>
    <text class="cls-1" transform="translate(411.06 420.29) rotate(-.14)"><tspan x="0" y="0">R</tspan></text>
    <text class="cls-3" transform="translate(169.52 507.45) rotate(-.78)"><tspan x="0" y="0">B</tspan></text>
    <text class="cls-3" transform="translate(237.05 505.82) rotate(-4.66)"><tspan x="0" y="0">R</tspan></text>
    <text class="cls-3" transform="translate(302.26 499.46) rotate(-6.21)"><tspan x="0" y="0">E</tspan></text>
    <text class="cls-3" transform="translate(356.09 492.19) rotate(-2.11)"><tspan x="0" y="0">W</tspan></text>
    <text class="cls-2" transform="translate(162.87 533.19) rotate(5.46)"><tspan x="0" y="0">c</tspan></text>
    <text class="cls-2" transform="translate(172.56 534.13) rotate(3.95)"><tspan x="0" y="0">o</tspan></text>
    <text class="cls-2" transform="translate(185.73 535) rotate(2.54)"><tspan x="0" y="0">f</tspan></text>
    <text class="cls-2" transform="translate(194.84 535.39) rotate(1.35)"><tspan x="0" y="0">f</tspan></text>
    <text class="cls-2" transform="translate(203.75 535.62) rotate(-.06)"><tspan x="0" y="0">e</tspan></text>
    <text class="cls-2" transform="translate(216.29 535.6) rotate(-1.8)"><tspan x="0" y="0">e</tspan></text>
    <text class="cls-2" transform="translate(228.95 535.2) rotate(-4.04)"><tspan x="0" y="0">•</tspan></text>
    <text class="cls-2" transform="translate(243.18 534.16) rotate(-5.32)"><tspan x="0" y="0">s</tspan></text>
    <text class="cls-2" transform="translate(254.08 533.15) rotate(-5.99)"><tspan x="0" y="0">m</tspan></text>
    <text class="cls-2" transform="translate(273.79 531.07) rotate(-6.26)"><tspan x="0" y="0">o</tspan></text>
    <text class="cls-2" transform="translate(286.59 529.67) rotate(-6.44)"><tspan x="0" y="0">o</tspan></text>
    <text class="cls-2" transform="translate(299.41 528.22) rotate(-6.64)"><tspan x="0" y="0">t</tspan></text>
    <text class="cls-2" transform="translate(307.63 527.27) rotate(-6.89)"><tspan x="0" y="0">h</tspan></text>
    <text class="cls-2" transform="translate(321.01 525.64) rotate(-7.13)"><tspan x="0" y="0">i</tspan></text>
    <text class="cls-2" transform="translate(328.44 524.7) rotate(-7.12)"><tspan x="0" y="0">e</tspan></text>
    <text class="cls-2" transform="translate(340.45 523.18) rotate(-6.09)"><tspan x="0" y="0">s</tspan></text>
    <text class="cls-2" transform="translate(351.25 522.02) rotate(-4.61)"><tspan x="0" y="0">•</tspan></text>
    <text class="cls-2" transform="translate(365.38 520.9) rotate(-3.37)"><tspan x="0" y="0">s</tspan></text>
    <text class="cls-2" transform="translate(376.26 520.25) rotate(-2.18)"><tspan x="0" y="0">h</tspan></text>
    <text class="cls-2" transform="translate(389.64 519.74) rotate(-.89)"><tspan x="0" y="0">a</tspan></text>
    <text class="cls-2" transform="translate(403.05 519.54) rotate(.38)"><tspan x="0" y="0">k</tspan></text>
    <text class="cls-2" transform="translate(415.91 519.62) rotate(1.5)"><tspan x="0" y="0">e</tspan></text>
    <text class="cls-2" transform="translate(428.02 519.95) rotate(2.55)"><tspan x="0" y="0">s</tspan></text>
  </g>
  <g id="Flame">
    <g id="Color_Splits" data-name="Color Splits">
      <path class="cls-19" d="m147.31,397.43c-.32-.63-4.03-3.71,4.52-16.34,3.61-5.34,7.97-8.45,12.53-13.03,7.86-7.89,11.41-8.55,17.59-16.19,8.7-10.76,5.04-16.46,10.55-24.03,11.45-15.72,57.04-6.93,58.95,4.35.14.8.18,1.53.12,2.27-.37,4.06,3.22,11.22,1.39,11.95-5.27,2.13-9.09,1.53-13.22,8.14-7.4,11.84-12.77,16.67-14.84,17.91-7.28,4.36-16.33,3.41-28.42,2.95-4.34-.17-14.93.65-24.76,4.78-16.92,7.11-23.3,19.39-24.4,17.23Z"/>
      <path class="cls-19" d="m135.98,272.54c-4.63,3.52-10.62,18.12-17.55,29.18-.33.52-4.74,10.21-4.86,10.4-3.33,5.5-8.58,21.3-13.72,51.42-7.91,46.35,15.35,96.17,18.64,95.76,2.21-.27-5-29.92-.37-65.79,2.03-15.73,2.89-23.62,5.14-30.07,9.83-28.06,27.65-30.78,29.67-51.82,1.4-14.57-11.94-42.89-16.96-39.08Z"/>
      <path class="cls-18" d="m131.82,278.91c-2.82,5.24-4.87,10.45-5.55,12.32-.95,2.6-2.43,7.03-3.62,12.69-1.5,7.16-1.68,12.75-1.89,14.7-5.24,47.65-6.41,120.98-3.37,120.97,1.69,0,5.01-39.02,13.18-57.24,8.98-20.03,22.63-27.02,31.99-36.8,26.47-27.65,30.2-78.26,14.9-90.88-6.72-5.54-18.94-.87-25.41,1.58-3.39,1.28-15.7,14.27-20.23,22.67Z"/>
      <path class="cls-18" d="m192.73,337.63c1.01,2.88,3.84,6.9,2.4,11.58-1.01,3.3-3.66,6.48-2.65,9.68.1.3.27.59.54.87,3.59,3.76,15.14,5.97,17.93,5.8,3.1-.18,13.79,1.58,16.35-6.33,3.37-10.39,6.66-12.22,13.45-16.75,5.4-3.6,11.53,4.69,29.26,3.93,21.39-.92,30.39-10.43,32.13-11.97.73-.64,8.7-5.77,7.87-12.43-2.27-18.28-73.43-41.18-101.3-16.72-7.02,6.16-19.58,22.05-15.98,32.33Z"/>
      <path class="cls-15" d="m308.87,324.32c-2.56,1.43-12.34,3.46-15.63,5.37-2.89,1.68-3.19,1.92-3.19,1.92-1.64,1.06-1.91,1.37-3.14,1.78-6.56,2.18-13.84-1.76-17.41-3.69-6.24-3.38-6.8-5.82-10.55-5.8-3.59.02-6.67,2.28-10.02,4.75-4.74,3.48-4.21,4.81-6.86,5.8-6.54,2.44-14.71-3.87-15.82-4.75-4.61-3.65-4.22-5.99-7.38-6.86-5.52-1.51-11.87,4.2-14.24,6.33-5.73,5.15-6.84,9.74-9.49,9.49-2.16-.2-2.96-2.37-9.08-9.92-5.67-7-6.77-7.22-7.41-7.22-3.5-.02-5.02,6.31-11.47,17.8-9.09,16.21-13.95,17.71-16.11,18.07-2.87.48-6.96-.05-8.15-2.38-1.13-2.21.6-5.58,2.11-7.38,2.16-2.58,4.08-2.24,4.75-4.22.94-2.77-1.95-6.07-2.64-6.86-2.88-3.29-5.44-3.03-7.38-4.75-5.5-4.87.27-19.8,1.58-23.21,2.23-5.79,3.87-7.82,15.77-27.21,6.24-10.17,8.46-13.96,7.44-18.68-1.42-6.58-14.55-6.8-11.24-9.37,5.95-4.61,21.78-20.26,39.59-23.99,43.43-9.1,97.69,16.47,114.33,55.78,6.8,16.06,7.88,35.73,1.65,39.2Z"/>
    </g>
    <path class="cls-7" d="m310.02,322.01c-2.67,5.44-6.33,12.89-14.41,17.8-11.55,7.01-28.86,6.84-34.75,6.78-7.05-.07-10.71-.88-15.25,1.69-4.68,2.66-4.9,5.84-11.02,13.56-4.7,5.93-8.66,10.92-14.41,13.56-6.85,3.15-9.78-.03-22.03,0-4.58,0-20.05.21-33.9,8.47-10.99,6.56-15.13,14.72-16.95,13.56-2.03-1.3.98-12.89,8.47-22.03,6.39-7.79,9.92-6.36,19.49-16.1,5.37-5.47,10.28-10.59,11.86-18.64.48-2.44,1.29-7.17-1.08-11.92-1.98-3.99-7.65-4.4-11.27-.02q-2.45,2.95-6.75,10.25c-1.85,3.13-1.75,2.63-11.4,12.71-8.77,9.15-13.48,13.4-16.1,16.1-11.41,11.74-14.62,26.29-17.8,40.68-6.57,29.8-.64,50.07-4.24,50.85-3.26.71-10.23-15.46-14.41-30.51-2.11-7.6-8.25-31.99-4.24-65.25,3.99-33.12,15.83-56.63,19.49-63.56,8.14-15.4,20.36-38.76,47.46-56.78,4.89-3.25,26.02-16.81,57.42-20.66,23.97-2.94,54.07-6.64,75.32,13.6,24.92,23.75,20.97,64.53,10.48,85.87Z"/>
  </g>
  <g id="Cup">
    <g id="Body">
      <path class="cls-9" d="m376.74,75.05c-14.08,14.5-34.8,34.26-48.92,48.72-20.91,21.41-41.85,42.77-62.85,64.09-9.89,9.89-19.71,18.62-24.6,24.08-8.13,9.06-10.13,15.82-9.82,24.53.2,5.6,1.23,13.56,11.19,24.69,21.36,23.87,19.31,20,34.64,34.26,6.31,5.88,25.7,21.83,34.02,22.18,11.78.49,29.83-7.05,29.83-7.05l55.75-36.36c23.82-17.86,47.64-35.73,71.46-53.59"/>
      <path class="cls-16" d="m466.5,219.18c-5.56,6.14-20.24,18.52-38.96,29.6l-50.81-37.65,23.2-25.58c-8.96-8.25-26.29-26.59-34.02-55.38-3.65-13.58-5.3-38.95-4.61-39.62,5.08-4.87,11.45-11.82,15.45-15.51,1.5-1.38-2.13,26.11,5.72,50,9.49,32.7,18.44,51.29,45.08,74.23,8.98,7.73,39.89,18.87,38.96,19.9Z"/>
      <line class="cls-7" x1="428.41" y1="250.64" x2="467.43" y2="220.58"/>
      <line class="cls-7" x1="376.74" y1="75.05" x2="356.86" y2="95.01"/>
    </g>
    <g id="Lid">
      <path class="cls-9" d="m395.44,52.5c2.93,2.58,7.52,8.77,13.19,8.31,5.59-.46,8.17-4.39,11.6-6.07,12.62-6.17,38.76,16.78,44.17,22.3,7.81,7.96,34.42,36.02,39.81,71.76,1.83,12.12-.23,20.4-3.81,29.9-2.84,7.54-2.78,9.36-2.9,17.41-.12,7.89,1.58,6.43,0,7.85-5.78,5.19-18.13,18.07-19.98,17.67-20.33-4.36-45.54-15.22-65.99-37.93-16.89-18.77-25.06-45.36-28.69-57.1-6.98-22.53-6.27-43.43-6.4-57.09l18.99-17.01Z"/>
      <path class="cls-16" d="m415.11,138.29c-1.22-2.13,5.78-3.81,10.65-8.03,8.3-7.21,4.34-10.92,7.67-11.31,5.07-.59,6.78,12.18,18.37,26.59,7.16,8.9,15.22,16.4,24.69,21.53,10.12,5.48,14.74,6.43,21.02,5.47,7.44-1.13.7,11.07.47,14.45-.47,6.91-.47,12.54-.47,16.95,0,1-16.68-5.67-26.63-12.08-21.78-14.03-25.18-16.99-29.31-20.26-13.18-10.42-23.45-28.06-26.46-33.32Z"/>
      <path class="cls-16" d="m393.47,155.68c.98-.94,10.44-4.31,14.55-5.3,5.72-1.38,8.59-9.19,10.1-6.83,2.9,4.55,8.12,11.1,17.36,22.28,5.04,6.1,11.53,11.22,17.88,15.18,16.78,10.46,17.52,10.87,30.74,17.39.38.19,14.77,3.11,10.78,7.89-5.53,6.62-16.01,13.14-18.2,13.92-3.96,1.42-38.86-9.04-53.02-24.17-17.34-18.53-33.21-37.45-30.19-40.36Z"/>
      <path class="cls-7" d="m395.44,52.5c2.64,76.35,28.48,123.43,102.07,151.45l-19.98,17.67c-62.24-10.51-103.35-70.62-100.68-152.51l18.59-16.62"/>
      <path class="cls-9" d="m421.03,54.48c-15.03,47.94,50.9,132.4,81.89,116.31"/>
      <path class="cls-9" d="m421.03,54.48c40.37-1.23,95.21,79.12,81.89,116.31"/>
      <path class="cls-4" d="m475.56,119.82c-2.88,1.66-6.57.68-8.23-2.21l-7.19-12.45c-1.66-2.88-.68-6.57,2.21-8.23h0c2.88-1.66,6.57-.68,8.23,2.21l7.19,12.45c1.66,2.88.68,6.57-2.21,8.23Z"/>
      <path class="cls-9" d="m502.91,170.79c-.65,2.14-2.99,8.31-3.81,12.22-1.25,5.92-1.3,7.09-1.43,10.06-.11,2.46-.13,5.42-.16,10.89"/>
    </g>
    <g id="Grip">
      <path class="cls-12" d="m381.56,281.3c-51.08-12.44-95.63-56.48-101.99-108.33l48.25-49.2c10.66,62.92,62.88,105.83,99.72,125.02l-45.98,32.51Z"/>
      <path class="cls-13" d="m376.45,211.61c5.98,5.24,20.04,17.32,24.17,20.41,7.96,5.94,9.46,7.04,13.7,9.58,7.5,4.49,14.69,8.6,14.09,9.05-2.37,1.78-8.94,8.28-20.57,16.01-18.41,12.24-19.01,12.17-22.79,14.64-1.42.93-18.43-4.07-27.34-8.39-4.25-2.06-26-15.25-26-15.25"/>
      <circle class="cls-9" cx="334.84" cy="214.86" r="33.31"/>
      <g id="X">
        <line class="cls-6" x1="330.03" y1="190.09" x2="339.61" y2="197.72"/>
        <line class="cls-6" x1="352.91" y1="210.53" x2="362.49" y2="218.16"/>
        <line class="cls-6" x1="328.67" y1="232.01" x2="338.25" y2="239.64"/>
        <line class="cls-6" x1="307.19" y1="212.91" x2="316.77" y2="220.53"/>
        <polyline class="cls-11" points="333.76 193.06 333.76 215.49 359.15 215.49"/>
        <polyline class="cls-11" points="333.76 236.07 333.76 215.49 310.44 215.49"/>
      </g>
      <path class="cls-8" d="m285.72,303.55c4.23,3.06,9.2,8.39,19.93,12.77,12.62,5.15,25.31,1.82,29.79-.48,11.31-5.79,24.02-14.02,31.12-20.18,9.33-8.09,20.38-13.95,18.48-14.37-7.8-1.72-26.53-7.93-33.67-11.36s-13.13-7.7-19.67-12.28"/>
    </g>
  </g>
  <g id="Fin">
    <path class="cls-14" d="m177.6,199.53c10.46-7.8,14.47-1.58,41.14-8.97,13.96-3.87,21.14-7.86,33.76-6.33,5.09.62,12.16,1.58,15.82,6.86,1.46,2.11,3.58,6.62-1.58,23.74-5.76,19.1-8.64,28.65-17.41,34.29-6.67,4.29-14.64,3.91-30.59,3.16-8.9-.42-24.97-2.06-42.2-10.55-10.37-5.11-12.07-8.23-12.66-9.49-4.51-9.71,3.14-24.82,13.71-32.7Z"/>
    <polygon class="cls-4" points="194.1 194.78 201.86 207.97 185.19 245.49 207.4 251.21 223.49 205.34 213.03 192.03 194.1 194.78"/>
    <line class="cls-10" x1="257.64" y1="199.93" x2="201.86" y2="207.97"/>
    <path class="cls-10" d="m201.86,207.97c-9.96,3.56-19.25,10.02-19.91,22.02"/>
    <path class="cls-14" d="m298.92,237.25c.34-.37,6.13-6.75,3.96-13.85-2.33-7.62-11.74-9.21-13.45-9.49-3.94-.66-7.6-.06-17.8,4.35-13.57,5.87-20.36,8.8-26.51,14.24-7.24,6.41-6.73,9.41-15.03,20.57-5.36,7.21-12.01,13.51-25.32,26.11-19.79,18.74-29.68,28.11-31.65,29.27-1.35.8-9.69,5.7-14.24,15.03-2.36,4.83-1.49,6.32-1.19,6.73,2.47,3.37,13.9-1.39,16.22-2.37l125.01-90.59Z"/>
    <polygon class="cls-4" points="213.5 270.87 229.84 287.31 203.1 306.69 187.75 295.01 213.5 270.87"/>
    <path class="cls-5" d="m226.96,280.78c10.85-11.65,20.59-16.18,45.05-39.97,1.95-1.89,5.96-5.9,11.47-5.93,6.07-.03,12.36,4.76,14.24,10.68,1.79,5.63.17,11.78-4.35,17.01-13.78,15.95-27.91,25.02-40.35,37.58-5.54,5.6-19.79,6.81-24.53,1.58-5.55-6.12-3.56-18.77-1.53-20.95Z"/>
    <path class="cls-17" d="m224.89,294.65c-.12-.96,13.02-7.85,21.43-12.19,2.18-1.12,13.84-7.24,21.36-15.03,13.65-14.13,11.16-31.12,18.99-32.04,3.85-.45,8.39,5.01,9.96,7.65,3.56,6,1.03,11.96-.64,15.86-3.99,9.34-9.93,10.02-26.33,25.54-9.07,8.58-11.94,14.78-21.4,18.76-8.84,3.72-16.41,2.35-17.74,1.39-2.73-1.96-5.18-6.49-5.62-9.94Z"/>
    <path class="cls-11" d="m272.01,240.81c.9,1.53,2.89,12.14,5.54,14.24,3.06,2.43,14.34,7.56,16.15,8.03"/>
    <path class="cls-7" d="m282.86,234.87c3.14-.07,10.99,4.17,14.39,9.4,2.99,4.61.71,12.88-2.69,16.82-4.04,4.68-4.57,5.84-17.19,17.47-6.38,5.88-9.02,7.74-18.58,16.08-7.89,6.89-9.15,8.56-12.65,9.36-2.67.61-11.88,2.59-17.02-1.67-4.76-3.95-4.25-8.74-4.23-10.49"/>
  </g>
</svg>